<mxfile host="65bd71144e">
    <diagram id="vDFaCMqAs25Oy_O5YzHm" name="Page-1">
        <mxGraphModel dx="2405" dy="399" grid="1" gridSize="10" guides="1" tooltips="1" connect="1" arrows="1" fold="1" page="1" pageScale="1" pageWidth="827" pageHeight="1169" math="0" shadow="0">
            <root>
                <mxCell id="0"/>
                <mxCell id="1" parent="0"/>
                <mxCell id="184" style="edgeStyle=none;html=1;exitX=0;exitY=0;exitDx=0;exitDy=0;entryX=0;entryY=0.5;entryDx=0;entryDy=0;" edge="1" parent="1" source="59" target="60">
                    <mxGeometry relative="1" as="geometry">
                        <Array as="points">
                            <mxPoint x="-800" y="1920"/>
                        </Array>
                    </mxGeometry>
                </mxCell>
                <mxCell id="185" style="edgeStyle=none;html=1;exitX=0;exitY=0;exitDx=0;exitDy=0;entryX=0;entryY=0.5;entryDx=0;entryDy=0;" edge="1" parent="1" source="59" target="66">
                    <mxGeometry relative="1" as="geometry">
                        <Array as="points">
                            <mxPoint x="-800" y="2000"/>
                        </Array>
                    </mxGeometry>
                </mxCell>
                <mxCell id="186" style="edgeStyle=none;html=1;exitX=0;exitY=0;exitDx=0;exitDy=0;entryX=0;entryY=0.5;entryDx=0;entryDy=0;" edge="1" parent="1" source="59" target="88">
                    <mxGeometry relative="1" as="geometry">
                        <Array as="points">
                            <mxPoint x="-800" y="2280"/>
                        </Array>
                    </mxGeometry>
                </mxCell>
                <mxCell id="187" style="edgeStyle=none;html=1;exitX=0;exitY=0;exitDx=0;exitDy=0;entryX=0;entryY=0.5;entryDx=0;entryDy=0;" edge="1" parent="1" source="59" target="93">
                    <mxGeometry relative="1" as="geometry">
                        <Array as="points">
                            <mxPoint x="-800" y="2360"/>
                        </Array>
                    </mxGeometry>
                </mxCell>
                <mxCell id="188" style="edgeStyle=none;html=1;exitX=0;exitY=0;exitDx=0;exitDy=0;entryX=0;entryY=0.5;entryDx=0;entryDy=0;" edge="1" parent="1" source="59" target="118">
                    <mxGeometry relative="1" as="geometry">
                        <Array as="points">
                            <mxPoint x="-800" y="2690"/>
                        </Array>
                    </mxGeometry>
                </mxCell>
                <mxCell id="189" style="edgeStyle=none;html=1;exitX=0;exitY=0;exitDx=0;exitDy=0;entryX=0;entryY=0.5;entryDx=0;entryDy=0;" edge="1" parent="1" source="59" target="139">
                    <mxGeometry relative="1" as="geometry">
                        <Array as="points">
                            <mxPoint x="-800" y="2970"/>
                        </Array>
                    </mxGeometry>
                </mxCell>
                <mxCell id="59" value="/api/v1" style="rounded=0;whiteSpace=wrap;html=1;align=left;spacingBottom=5;spacingLeft=5;spacingRight=5;spacingTop=5;" parent="1" vertex="1">
                    <mxGeometry x="-800" y="1880" width="120" height="20" as="geometry"/>
                </mxCell>
                <mxCell id="183" style="edgeStyle=none;html=1;exitX=0;exitY=0;exitDx=0;exitDy=0;entryX=0;entryY=0.5;entryDx=0;entryDy=0;" edge="1" parent="1" source="60" target="61">
                    <mxGeometry relative="1" as="geometry">
                        <Array as="points">
                            <mxPoint x="-760" y="1960"/>
                        </Array>
                    </mxGeometry>
                </mxCell>
                <mxCell id="60" value="/emails" style="rounded=0;whiteSpace=wrap;html=1;align=left;spacingBottom=5;spacingLeft=5;spacingRight=5;spacingTop=5;" parent="1" vertex="1">
                    <mxGeometry x="-760" y="1910" width="120" height="20" as="geometry"/>
                </mxCell>
                <mxCell id="61" value="POST" style="rounded=1;whiteSpace=wrap;html=1;align=left;spacingBottom=5;spacingLeft=5;spacingRight=5;spacingTop=5;" parent="1" vertex="1">
                    <mxGeometry x="-720" y="1940" width="560" height="40" as="geometry"/>
                </mxCell>
                <mxCell id="62" value="Input : JSON with email, subject, and body" style="rounded=0;whiteSpace=wrap;html=1;fontStyle=2;align=left;spacingLeft=5;spacingRight=5;" parent="1" vertex="1">
                    <mxGeometry x="-640" y="1940" width="160" height="40" as="geometry"/>
                </mxCell>
                <mxCell id="63" value="Paramaters: none" style="rounded=0;whiteSpace=wrap;html=1;fontStyle=2;align=left;spacingLeft=5;spacingRight=5;" parent="1" vertex="1">
                    <mxGeometry x="-480" y="1940" width="160" height="40" as="geometry"/>
                </mxCell>
                <mxCell id="64" value="Output: JSON with status message" style="rounded=0;whiteSpace=wrap;html=1;fontStyle=2;align=left;spacingLeft=5;spacingRight=5;" parent="1" vertex="1">
                    <mxGeometry x="-320" y="1940" width="160" height="40" as="geometry"/>
                </mxCell>
                <mxCell id="178" style="edgeStyle=none;html=1;exitX=0;exitY=0;exitDx=0;exitDy=0;entryX=0;entryY=0.5;entryDx=0;entryDy=0;" edge="1" parent="1" source="66" target="67">
                    <mxGeometry relative="1" as="geometry">
                        <Array as="points">
                            <mxPoint x="-760" y="2040"/>
                        </Array>
                    </mxGeometry>
                </mxCell>
                <mxCell id="179" style="edgeStyle=none;html=1;exitX=0;exitY=0;exitDx=0;exitDy=0;entryX=0;entryY=0.5;entryDx=0;entryDy=0;" edge="1" parent="1" source="66" target="71">
                    <mxGeometry relative="1" as="geometry">
                        <Array as="points">
                            <mxPoint x="-760" y="2090"/>
                        </Array>
                    </mxGeometry>
                </mxCell>
                <mxCell id="180" style="edgeStyle=none;html=1;exitX=0;exitY=0;exitDx=0;exitDy=0;entryX=0;entryY=0.5;entryDx=0;entryDy=0;" edge="1" parent="1" source="66" target="75">
                    <mxGeometry relative="1" as="geometry">
                        <Array as="points">
                            <mxPoint x="-760" y="2140"/>
                        </Array>
                    </mxGeometry>
                </mxCell>
                <mxCell id="181" style="edgeStyle=none;html=1;exitX=0;exitY=0;exitDx=0;exitDy=0;entryX=0;entryY=0.5;entryDx=0;entryDy=0;" edge="1" parent="1" source="66" target="79">
                    <mxGeometry relative="1" as="geometry">
                        <Array as="points">
                            <mxPoint x="-760" y="2190"/>
                        </Array>
                    </mxGeometry>
                </mxCell>
                <mxCell id="182" style="edgeStyle=none;html=1;exitX=0;exitY=0;exitDx=0;exitDy=0;entryX=0;entryY=0.5;entryDx=0;entryDy=0;" edge="1" parent="1" source="66" target="84">
                    <mxGeometry relative="1" as="geometry">
                        <Array as="points">
                            <mxPoint x="-760" y="2240"/>
                        </Array>
                    </mxGeometry>
                </mxCell>
                <mxCell id="66" value="/users" style="rounded=0;whiteSpace=wrap;html=1;align=left;spacingBottom=5;spacingLeft=5;spacingRight=5;spacingTop=5;" parent="1" vertex="1">
                    <mxGeometry x="-760" y="1990" width="120" height="20" as="geometry"/>
                </mxCell>
                <mxCell id="67" value="GET" style="rounded=1;whiteSpace=wrap;html=1;align=left;spacingBottom=5;spacingLeft=5;spacingRight=5;spacingTop=5;" parent="1" vertex="1">
                    <mxGeometry x="-720" y="2020" width="560" height="40" as="geometry"/>
                </mxCell>
                <mxCell id="68" value="Input : None" style="rounded=0;whiteSpace=wrap;html=1;fontStyle=2;align=left;spacingLeft=5;spacingRight=5;" parent="1" vertex="1">
                    <mxGeometry x="-640" y="2020" width="160" height="40" as="geometry"/>
                </mxCell>
                <mxCell id="69" value="Paramaters: Path Para min_id and max_id" style="rounded=0;whiteSpace=wrap;html=1;fontStyle=2;align=left;spacingLeft=5;spacingRight=5;" parent="1" vertex="1">
                    <mxGeometry x="-480" y="2020" width="160" height="40" as="geometry"/>
                </mxCell>
                <mxCell id="70" value="Output: List of JSON of user objects" style="rounded=0;whiteSpace=wrap;html=1;fontStyle=2;align=left;spacingLeft=5;spacingRight=5;" parent="1" vertex="1">
                    <mxGeometry x="-320" y="2020" width="160" height="40" as="geometry"/>
                </mxCell>
                <mxCell id="71" value="GET" style="rounded=1;whiteSpace=wrap;html=1;align=left;spacingBottom=5;spacingLeft=5;spacingRight=5;spacingTop=5;" vertex="1" parent="1">
                    <mxGeometry x="-720" y="2070" width="560" height="40" as="geometry"/>
                </mxCell>
                <mxCell id="72" value="Input : None&amp;nbsp;" style="rounded=0;whiteSpace=wrap;html=1;fontStyle=2;align=left;spacingLeft=5;spacingRight=5;" vertex="1" parent="1">
                    <mxGeometry x="-640" y="2070" width="160" height="40" as="geometry"/>
                </mxCell>
                <mxCell id="73" value="Paramaters: Path Para id" style="rounded=0;whiteSpace=wrap;html=1;fontStyle=2;align=left;spacingLeft=5;spacingRight=5;" vertex="1" parent="1">
                    <mxGeometry x="-480" y="2070" width="160" height="40" as="geometry"/>
                </mxCell>
                <mxCell id="74" value="Output: JSON of user object" style="rounded=0;whiteSpace=wrap;html=1;fontStyle=2;align=left;spacingLeft=5;spacingRight=5;" vertex="1" parent="1">
                    <mxGeometry x="-320" y="2070" width="160" height="40" as="geometry"/>
                </mxCell>
                <mxCell id="75" value="POST" style="rounded=1;whiteSpace=wrap;html=1;align=left;spacingBottom=5;spacingLeft=5;spacingRight=5;spacingTop=5;" vertex="1" parent="1">
                    <mxGeometry x="-720" y="2120" width="560" height="40" as="geometry"/>
                </mxCell>
                <mxCell id="76" value="Input : JSON of user object" style="rounded=0;whiteSpace=wrap;html=1;fontStyle=2;align=left;spacingLeft=5;spacingRight=5;" vertex="1" parent="1">
                    <mxGeometry x="-640" y="2120" width="160" height="40" as="geometry"/>
                </mxCell>
                <mxCell id="77" value="Paramaters: None" style="rounded=0;whiteSpace=wrap;html=1;fontStyle=2;align=left;spacingLeft=5;spacingRight=5;" vertex="1" parent="1">
                    <mxGeometry x="-480" y="2120" width="160" height="40" as="geometry"/>
                </mxCell>
                <mxCell id="78" value="Output: JSON of posted user object" style="rounded=0;whiteSpace=wrap;html=1;fontStyle=2;align=left;spacingLeft=5;spacingRight=5;" vertex="1" parent="1">
                    <mxGeometry x="-320" y="2120" width="160" height="40" as="geometry"/>
                </mxCell>
                <mxCell id="79" value="PUT" style="rounded=1;whiteSpace=wrap;html=1;align=left;spacingBottom=5;spacingLeft=5;spacingRight=5;spacingTop=5;" vertex="1" parent="1">
                    <mxGeometry x="-720" y="2170" width="560" height="40" as="geometry"/>
                </mxCell>
                <mxCell id="80" value="Input : JSON of user object" style="rounded=0;whiteSpace=wrap;html=1;fontStyle=2;align=left;spacingLeft=5;spacingRight=5;" vertex="1" parent="1">
                    <mxGeometry x="-640" y="2170" width="160" height="40" as="geometry"/>
                </mxCell>
                <mxCell id="81" value="Paramaters: None" style="rounded=0;whiteSpace=wrap;html=1;fontStyle=2;align=left;spacingLeft=5;spacingRight=5;" vertex="1" parent="1">
                    <mxGeometry x="-480" y="2170" width="160" height="40" as="geometry"/>
                </mxCell>
                <mxCell id="82" value="Output: JSON of updated user object" style="rounded=0;whiteSpace=wrap;html=1;fontStyle=2;align=left;spacingLeft=5;spacingRight=5;" vertex="1" parent="1">
                    <mxGeometry x="-320" y="2170" width="160" height="40" as="geometry"/>
                </mxCell>
                <mxCell id="84" value="DELETE" style="rounded=1;whiteSpace=wrap;html=1;align=left;spacingBottom=5;spacingLeft=5;spacingRight=5;spacingTop=5;" vertex="1" parent="1">
                    <mxGeometry x="-720" y="2220" width="560" height="40" as="geometry"/>
                </mxCell>
                <mxCell id="85" value="Input : JSON of user object" style="rounded=0;whiteSpace=wrap;html=1;fontStyle=2;align=left;spacingLeft=5;spacingRight=5;" vertex="1" parent="1">
                    <mxGeometry x="-640" y="2220" width="160" height="40" as="geometry"/>
                </mxCell>
                <mxCell id="86" value="Paramaters: None" style="rounded=0;whiteSpace=wrap;html=1;fontStyle=2;align=left;spacingLeft=5;spacingRight=5;" vertex="1" parent="1">
                    <mxGeometry x="-480" y="2220" width="160" height="40" as="geometry"/>
                </mxCell>
                <mxCell id="87" value="Output: JSON of deleted user object" style="rounded=0;whiteSpace=wrap;html=1;fontStyle=2;align=left;spacingLeft=5;spacingRight=5;" vertex="1" parent="1">
                    <mxGeometry x="-320" y="2220" width="160" height="40" as="geometry"/>
                </mxCell>
                <mxCell id="177" style="edgeStyle=none;html=1;exitX=0;exitY=0.25;exitDx=0;exitDy=0;entryX=0;entryY=0.5;entryDx=0;entryDy=0;" edge="1" parent="1" source="88" target="89">
                    <mxGeometry relative="1" as="geometry">
                        <Array as="points">
                            <mxPoint x="-760" y="2318"/>
                        </Array>
                    </mxGeometry>
                </mxCell>
                <mxCell id="88" value="/users/auth" style="rounded=0;whiteSpace=wrap;html=1;align=left;spacingBottom=5;spacingLeft=5;spacingRight=5;spacingTop=5;" vertex="1" parent="1">
                    <mxGeometry x="-760" y="2268" width="120" height="20" as="geometry"/>
                </mxCell>
                <mxCell id="89" value="POST" style="rounded=1;whiteSpace=wrap;html=1;align=left;spacingBottom=5;spacingLeft=5;spacingRight=5;spacingTop=5;" vertex="1" parent="1">
                    <mxGeometry x="-720" y="2298" width="560" height="40" as="geometry"/>
                </mxCell>
                <mxCell id="90" value="Input : JSON with email address" style="rounded=0;whiteSpace=wrap;html=1;fontStyle=2;align=left;spacingLeft=5;spacingRight=5;" vertex="1" parent="1">
                    <mxGeometry x="-640" y="2298" width="160" height="40" as="geometry"/>
                </mxCell>
                <mxCell id="91" value="Paramaters: None" style="rounded=0;whiteSpace=wrap;html=1;fontStyle=2;align=left;spacingLeft=5;spacingRight=5;" vertex="1" parent="1">
                    <mxGeometry x="-480" y="2298" width="160" height="40" as="geometry"/>
                </mxCell>
                <mxCell id="92" value="Output: JSON of user object with email address" style="rounded=0;whiteSpace=wrap;html=1;fontStyle=2;align=left;spacingLeft=5;spacingRight=5;" vertex="1" parent="1">
                    <mxGeometry x="-320" y="2298" width="160" height="40" as="geometry"/>
                </mxCell>
                <mxCell id="171" style="edgeStyle=none;html=1;exitX=0;exitY=0;exitDx=0;exitDy=0;entryX=0;entryY=0.5;entryDx=0;entryDy=0;" edge="1" parent="1" source="93" target="110">
                    <mxGeometry relative="1" as="geometry">
                        <Array as="points">
                            <mxPoint x="-760" y="2650"/>
                        </Array>
                    </mxGeometry>
                </mxCell>
                <mxCell id="172" style="edgeStyle=none;html=1;exitX=0;exitY=0;exitDx=0;exitDy=0;entryX=0;entryY=0.5;entryDx=0;entryDy=0;" edge="1" parent="1" source="93" target="106">
                    <mxGeometry relative="1" as="geometry">
                        <Array as="points">
                            <mxPoint x="-760" y="2600"/>
                        </Array>
                    </mxGeometry>
                </mxCell>
                <mxCell id="173" style="edgeStyle=none;html=1;exitX=0;exitY=0;exitDx=0;exitDy=0;entryX=0;entryY=0.5;entryDx=0;entryDy=0;" edge="1" parent="1" source="93" target="102">
                    <mxGeometry relative="1" as="geometry">
                        <Array as="points">
                            <mxPoint x="-760" y="2550"/>
                        </Array>
                    </mxGeometry>
                </mxCell>
                <mxCell id="174" style="edgeStyle=none;html=1;exitX=0;exitY=0;exitDx=0;exitDy=0;entryX=0;entryY=0.5;entryDx=0;entryDy=0;" edge="1" parent="1" source="93" target="114">
                    <mxGeometry relative="1" as="geometry">
                        <Array as="points">
                            <mxPoint x="-760" y="2500"/>
                        </Array>
                    </mxGeometry>
                </mxCell>
                <mxCell id="175" style="edgeStyle=none;html=1;exitX=0;exitY=0;exitDx=0;exitDy=0;entryX=0;entryY=0.5;entryDx=0;entryDy=0;" edge="1" parent="1" source="93" target="98">
                    <mxGeometry relative="1" as="geometry">
                        <Array as="points">
                            <mxPoint x="-760" y="2450"/>
                        </Array>
                    </mxGeometry>
                </mxCell>
                <mxCell id="176" style="edgeStyle=none;html=1;exitX=0;exitY=0;exitDx=0;exitDy=0;entryX=0;entryY=0.5;entryDx=0;entryDy=0;" edge="1" parent="1" source="93" target="94">
                    <mxGeometry relative="1" as="geometry">
                        <Array as="points">
                            <mxPoint x="-760" y="2400"/>
                        </Array>
                    </mxGeometry>
                </mxCell>
                <mxCell id="93" value="/images" style="rounded=0;whiteSpace=wrap;html=1;align=left;spacingBottom=5;spacingLeft=5;spacingRight=5;spacingTop=5;" vertex="1" parent="1">
                    <mxGeometry x="-760" y="2350" width="120" height="20" as="geometry"/>
                </mxCell>
                <mxCell id="94" value="GET" style="rounded=1;whiteSpace=wrap;html=1;align=left;spacingBottom=5;spacingLeft=5;spacingRight=5;spacingTop=5;" vertex="1" parent="1">
                    <mxGeometry x="-720" y="2380" width="560" height="40" as="geometry"/>
                </mxCell>
                <mxCell id="95" value="Input : None" style="rounded=0;whiteSpace=wrap;html=1;fontStyle=2;align=left;spacingLeft=5;spacingRight=5;" vertex="1" parent="1">
                    <mxGeometry x="-640" y="2380" width="160" height="40" as="geometry"/>
                </mxCell>
                <mxCell id="96" value="Paramaters: Path Para min_id and max_id" style="rounded=0;whiteSpace=wrap;html=1;fontStyle=2;align=left;spacingLeft=5;spacingRight=5;" vertex="1" parent="1">
                    <mxGeometry x="-480" y="2380" width="160" height="40" as="geometry"/>
                </mxCell>
                <mxCell id="97" value="Output: List of JSON of image objects" style="rounded=0;whiteSpace=wrap;html=1;fontStyle=2;align=left;spacingLeft=5;spacingRight=5;" vertex="1" parent="1">
                    <mxGeometry x="-320" y="2380" width="160" height="40" as="geometry"/>
                </mxCell>
                <mxCell id="98" value="GET" style="rounded=1;whiteSpace=wrap;html=1;align=left;spacingBottom=5;spacingLeft=5;spacingRight=5;spacingTop=5;" vertex="1" parent="1">
                    <mxGeometry x="-720" y="2430" width="560" height="40" as="geometry"/>
                </mxCell>
                <mxCell id="99" value="Input : None&amp;nbsp;" style="rounded=0;whiteSpace=wrap;html=1;fontStyle=2;align=left;spacingLeft=5;spacingRight=5;" vertex="1" parent="1">
                    <mxGeometry x="-640" y="2430" width="160" height="40" as="geometry"/>
                </mxCell>
                <mxCell id="100" value="Paramaters: Path Para id" style="rounded=0;whiteSpace=wrap;html=1;fontStyle=2;align=left;spacingLeft=5;spacingRight=5;" vertex="1" parent="1">
                    <mxGeometry x="-480" y="2430" width="160" height="40" as="geometry"/>
                </mxCell>
                <mxCell id="102" value="POST" style="rounded=1;whiteSpace=wrap;html=1;align=left;spacingBottom=5;spacingLeft=5;spacingRight=5;spacingTop=5;" vertex="1" parent="1">
                    <mxGeometry x="-720" y="2530" width="560" height="40" as="geometry"/>
                </mxCell>
                <mxCell id="103" value="Input : JSON of image object" style="rounded=0;whiteSpace=wrap;html=1;fontStyle=2;align=left;spacingLeft=5;spacingRight=5;" vertex="1" parent="1">
                    <mxGeometry x="-640" y="2530" width="160" height="40" as="geometry"/>
                </mxCell>
                <mxCell id="104" value="Paramaters: None" style="rounded=0;whiteSpace=wrap;html=1;fontStyle=2;align=left;spacingLeft=5;spacingRight=5;" vertex="1" parent="1">
                    <mxGeometry x="-480" y="2530" width="160" height="40" as="geometry"/>
                </mxCell>
                <mxCell id="105" value="Output: JSON of posted image object" style="rounded=0;whiteSpace=wrap;html=1;fontStyle=2;align=left;spacingLeft=5;spacingRight=5;" vertex="1" parent="1">
                    <mxGeometry x="-320" y="2530" width="160" height="40" as="geometry"/>
                </mxCell>
                <mxCell id="106" value="PUT" style="rounded=1;whiteSpace=wrap;html=1;align=left;spacingBottom=5;spacingLeft=5;spacingRight=5;spacingTop=5;" vertex="1" parent="1">
                    <mxGeometry x="-720" y="2580" width="560" height="40" as="geometry"/>
                </mxCell>
                <mxCell id="107" value="Input : JSON of image object" style="rounded=0;whiteSpace=wrap;html=1;fontStyle=2;align=left;spacingLeft=5;spacingRight=5;" vertex="1" parent="1">
                    <mxGeometry x="-640" y="2580" width="160" height="40" as="geometry"/>
                </mxCell>
                <mxCell id="108" value="Paramaters: None" style="rounded=0;whiteSpace=wrap;html=1;fontStyle=2;align=left;spacingLeft=5;spacingRight=5;" vertex="1" parent="1">
                    <mxGeometry x="-480" y="2580" width="160" height="40" as="geometry"/>
                </mxCell>
                <mxCell id="109" value="Output: JSON of updated image object" style="rounded=0;whiteSpace=wrap;html=1;fontStyle=2;align=left;spacingLeft=5;spacingRight=5;" vertex="1" parent="1">
                    <mxGeometry x="-320" y="2580" width="160" height="40" as="geometry"/>
                </mxCell>
                <mxCell id="110" value="DELETE" style="rounded=1;whiteSpace=wrap;html=1;align=left;spacingBottom=5;spacingLeft=5;spacingRight=5;spacingTop=5;" vertex="1" parent="1">
                    <mxGeometry x="-720" y="2630" width="560" height="40" as="geometry"/>
                </mxCell>
                <mxCell id="111" value="Input : JSON of image object" style="rounded=0;whiteSpace=wrap;html=1;fontStyle=2;align=left;spacingLeft=5;spacingRight=5;" vertex="1" parent="1">
                    <mxGeometry x="-640" y="2630" width="160" height="40" as="geometry"/>
                </mxCell>
                <mxCell id="112" value="Paramaters: None" style="rounded=0;whiteSpace=wrap;html=1;fontStyle=2;align=left;spacingLeft=5;spacingRight=5;" vertex="1" parent="1">
                    <mxGeometry x="-480" y="2630" width="160" height="40" as="geometry"/>
                </mxCell>
                <mxCell id="113" value="Output: JSON of deleted image object" style="rounded=0;whiteSpace=wrap;html=1;fontStyle=2;align=left;spacingLeft=5;spacingRight=5;" vertex="1" parent="1">
                    <mxGeometry x="-320" y="2630" width="160" height="40" as="geometry"/>
                </mxCell>
                <mxCell id="114" value="GET" style="rounded=1;whiteSpace=wrap;html=1;align=left;spacingBottom=5;spacingLeft=5;spacingRight=5;spacingTop=5;" vertex="1" parent="1">
                    <mxGeometry x="-720" y="2480" width="560" height="40" as="geometry"/>
                </mxCell>
                <mxCell id="115" value="Input : None&amp;nbsp;" style="rounded=0;whiteSpace=wrap;html=1;fontStyle=2;align=left;spacingLeft=5;spacingRight=5;" vertex="1" parent="1">
                    <mxGeometry x="-640" y="2480" width="160" height="40" as="geometry"/>
                </mxCell>
                <mxCell id="116" value="Paramaters: Path Para filename" style="rounded=0;whiteSpace=wrap;html=1;fontStyle=2;align=left;spacingLeft=5;spacingRight=5;" vertex="1" parent="1">
                    <mxGeometry x="-480" y="2480" width="160" height="40" as="geometry"/>
                </mxCell>
                <mxCell id="117" value="Output: JSON of image object" style="rounded=0;whiteSpace=wrap;html=1;fontStyle=2;align=left;spacingLeft=5;spacingRight=5;" vertex="1" parent="1">
                    <mxGeometry x="-320" y="2430" width="160" height="40" as="geometry"/>
                </mxCell>
                <mxCell id="101" value="Output: JSON of with image&#39;s id and S3 url" style="rounded=0;whiteSpace=wrap;html=1;fontStyle=2;align=left;spacingLeft=5;spacingRight=5;" vertex="1" parent="1">
                    <mxGeometry x="-320" y="2480" width="160" height="40" as="geometry"/>
                </mxCell>
                <mxCell id="166" style="edgeStyle=none;html=1;exitX=0;exitY=0;exitDx=0;exitDy=0;entryX=0;entryY=0.5;entryDx=0;entryDy=0;" edge="1" parent="1" source="118" target="135">
                    <mxGeometry relative="1" as="geometry">
                        <Array as="points">
                            <mxPoint x="-760" y="2930"/>
                        </Array>
                    </mxGeometry>
                </mxCell>
                <mxCell id="167" style="edgeStyle=none;html=1;exitX=0;exitY=0;exitDx=0;exitDy=0;entryX=0;entryY=0.5;entryDx=0;entryDy=0;" edge="1" parent="1" source="118" target="131">
                    <mxGeometry relative="1" as="geometry">
                        <Array as="points">
                            <mxPoint x="-760" y="2880"/>
                        </Array>
                    </mxGeometry>
                </mxCell>
                <mxCell id="168" style="edgeStyle=none;html=1;exitX=0;exitY=0;exitDx=0;exitDy=0;entryX=0;entryY=0.5;entryDx=0;entryDy=0;" edge="1" parent="1" source="118" target="127">
                    <mxGeometry relative="1" as="geometry">
                        <Array as="points">
                            <mxPoint x="-760" y="2830"/>
                        </Array>
                    </mxGeometry>
                </mxCell>
                <mxCell id="169" style="edgeStyle=none;html=1;exitX=0;exitY=0;exitDx=0;exitDy=0;entryX=0;entryY=0.5;entryDx=0;entryDy=0;" edge="1" parent="1" source="118" target="123">
                    <mxGeometry relative="1" as="geometry">
                        <Array as="points">
                            <mxPoint x="-760" y="2780"/>
                        </Array>
                    </mxGeometry>
                </mxCell>
                <mxCell id="170" style="edgeStyle=none;html=1;exitX=0;exitY=0;exitDx=0;exitDy=0;entryX=0;entryY=0.5;entryDx=0;entryDy=0;" edge="1" parent="1" source="118" target="119">
                    <mxGeometry relative="1" as="geometry">
                        <Array as="points">
                            <mxPoint x="-760" y="2730"/>
                        </Array>
                    </mxGeometry>
                </mxCell>
                <mxCell id="118" value="/requests" style="rounded=0;whiteSpace=wrap;html=1;align=left;spacingBottom=5;spacingLeft=5;spacingRight=5;spacingTop=5;" vertex="1" parent="1">
                    <mxGeometry x="-760" y="2680" width="120" height="20" as="geometry"/>
                </mxCell>
                <mxCell id="119" value="GET" style="rounded=1;whiteSpace=wrap;html=1;align=left;spacingBottom=5;spacingLeft=5;spacingRight=5;spacingTop=5;" vertex="1" parent="1">
                    <mxGeometry x="-720" y="2710" width="560" height="40" as="geometry"/>
                </mxCell>
                <mxCell id="120" value="Input : None" style="rounded=0;whiteSpace=wrap;html=1;fontStyle=2;align=left;spacingLeft=5;spacingRight=5;" vertex="1" parent="1">
                    <mxGeometry x="-640" y="2710" width="160" height="40" as="geometry"/>
                </mxCell>
                <mxCell id="121" value="Paramaters: Path Para min_id and max_id" style="rounded=0;whiteSpace=wrap;html=1;fontStyle=2;align=left;spacingLeft=5;spacingRight=5;" vertex="1" parent="1">
                    <mxGeometry x="-480" y="2710" width="160" height="40" as="geometry"/>
                </mxCell>
                <mxCell id="122" value="Output: List of JSON of request objects" style="rounded=0;whiteSpace=wrap;html=1;fontStyle=2;align=left;spacingLeft=5;spacingRight=5;" vertex="1" parent="1">
                    <mxGeometry x="-320" y="2710" width="160" height="40" as="geometry"/>
                </mxCell>
                <mxCell id="123" value="GET" style="rounded=1;whiteSpace=wrap;html=1;align=left;spacingBottom=5;spacingLeft=5;spacingRight=5;spacingTop=5;" vertex="1" parent="1">
                    <mxGeometry x="-720" y="2760" width="560" height="40" as="geometry"/>
                </mxCell>
                <mxCell id="124" value="Input : None&amp;nbsp;" style="rounded=0;whiteSpace=wrap;html=1;fontStyle=2;align=left;spacingLeft=5;spacingRight=5;" vertex="1" parent="1">
                    <mxGeometry x="-640" y="2760" width="160" height="40" as="geometry"/>
                </mxCell>
                <mxCell id="125" value="Paramaters: Path Para id" style="rounded=0;whiteSpace=wrap;html=1;fontStyle=2;align=left;spacingLeft=5;spacingRight=5;" vertex="1" parent="1">
                    <mxGeometry x="-480" y="2760" width="160" height="40" as="geometry"/>
                </mxCell>
                <mxCell id="126" value="Output: JSON of&amp;nbsp;&lt;span style=&quot;color: rgb(0, 0, 0);&quot;&gt;request&lt;/span&gt;&amp;nbsp;object" style="rounded=0;whiteSpace=wrap;html=1;fontStyle=2;align=left;spacingLeft=5;spacingRight=5;" vertex="1" parent="1">
                    <mxGeometry x="-320" y="2760" width="160" height="40" as="geometry"/>
                </mxCell>
                <mxCell id="127" value="POST" style="rounded=1;whiteSpace=wrap;html=1;align=left;spacingBottom=5;spacingLeft=5;spacingRight=5;spacingTop=5;" vertex="1" parent="1">
                    <mxGeometry x="-720" y="2810" width="560" height="40" as="geometry"/>
                </mxCell>
                <mxCell id="128" value="Input : JSON of&amp;nbsp;&lt;span style=&quot;color: rgb(0, 0, 0);&quot;&gt;request&lt;/span&gt;&amp;nbsp;object" style="rounded=0;whiteSpace=wrap;html=1;fontStyle=2;align=left;spacingLeft=5;spacingRight=5;" vertex="1" parent="1">
                    <mxGeometry x="-640" y="2810" width="160" height="40" as="geometry"/>
                </mxCell>
                <mxCell id="129" value="Paramaters: None" style="rounded=0;whiteSpace=wrap;html=1;fontStyle=2;align=left;spacingLeft=5;spacingRight=5;" vertex="1" parent="1">
                    <mxGeometry x="-480" y="2810" width="160" height="40" as="geometry"/>
                </mxCell>
                <mxCell id="130" value="Output: JSON of posted&amp;nbsp;&lt;span style=&quot;color: rgb(0, 0, 0);&quot;&gt;request&lt;/span&gt;&amp;nbsp;object" style="rounded=0;whiteSpace=wrap;html=1;fontStyle=2;align=left;spacingLeft=5;spacingRight=5;" vertex="1" parent="1">
                    <mxGeometry x="-320" y="2810" width="160" height="40" as="geometry"/>
                </mxCell>
                <mxCell id="131" value="PUT" style="rounded=1;whiteSpace=wrap;html=1;align=left;spacingBottom=5;spacingLeft=5;spacingRight=5;spacingTop=5;" vertex="1" parent="1">
                    <mxGeometry x="-720" y="2860" width="560" height="40" as="geometry"/>
                </mxCell>
                <mxCell id="132" value="Input : JSON of&amp;nbsp;&lt;span style=&quot;color: rgb(0, 0, 0);&quot;&gt;request&lt;/span&gt;&amp;nbsp;object" style="rounded=0;whiteSpace=wrap;html=1;fontStyle=2;align=left;spacingLeft=5;spacingRight=5;" vertex="1" parent="1">
                    <mxGeometry x="-640" y="2860" width="160" height="40" as="geometry"/>
                </mxCell>
                <mxCell id="133" value="Paramaters: None" style="rounded=0;whiteSpace=wrap;html=1;fontStyle=2;align=left;spacingLeft=5;spacingRight=5;" vertex="1" parent="1">
                    <mxGeometry x="-480" y="2860" width="160" height="40" as="geometry"/>
                </mxCell>
                <mxCell id="134" value="Output: JSON of updated&amp;nbsp;&lt;span style=&quot;color: rgb(0, 0, 0);&quot;&gt;request&lt;/span&gt;&amp;nbsp;object" style="rounded=0;whiteSpace=wrap;html=1;fontStyle=2;align=left;spacingLeft=5;spacingRight=5;" vertex="1" parent="1">
                    <mxGeometry x="-320" y="2860" width="160" height="40" as="geometry"/>
                </mxCell>
                <mxCell id="135" value="DELETE" style="rounded=1;whiteSpace=wrap;html=1;align=left;spacingBottom=5;spacingLeft=5;spacingRight=5;spacingTop=5;" vertex="1" parent="1">
                    <mxGeometry x="-720" y="2910" width="560" height="40" as="geometry"/>
                </mxCell>
                <mxCell id="136" value="Input : JSON of&amp;nbsp;&lt;span style=&quot;color: rgb(0, 0, 0);&quot;&gt;request&lt;/span&gt;&amp;nbsp;object" style="rounded=0;whiteSpace=wrap;html=1;fontStyle=2;align=left;spacingLeft=5;spacingRight=5;" vertex="1" parent="1">
                    <mxGeometry x="-640" y="2910" width="160" height="40" as="geometry"/>
                </mxCell>
                <mxCell id="137" value="Paramaters: None" style="rounded=0;whiteSpace=wrap;html=1;fontStyle=2;align=left;spacingLeft=5;spacingRight=5;" vertex="1" parent="1">
                    <mxGeometry x="-480" y="2910" width="160" height="40" as="geometry"/>
                </mxCell>
                <mxCell id="138" value="Output: JSON of deleted&amp;nbsp;&lt;span style=&quot;color: rgb(0, 0, 0);&quot;&gt;request&lt;/span&gt;&amp;nbsp;object" style="rounded=0;whiteSpace=wrap;html=1;fontStyle=2;align=left;spacingLeft=5;spacingRight=5;" vertex="1" parent="1">
                    <mxGeometry x="-320" y="2910" width="160" height="40" as="geometry"/>
                </mxCell>
                <mxCell id="161" style="edgeStyle=none;html=1;exitX=0;exitY=0.75;exitDx=0;exitDy=0;entryX=0;entryY=0.5;entryDx=0;entryDy=0;" edge="1" parent="1" source="139" target="140">
                    <mxGeometry relative="1" as="geometry">
                        <Array as="points">
                            <mxPoint x="-760" y="3010"/>
                        </Array>
                    </mxGeometry>
                </mxCell>
                <mxCell id="162" style="edgeStyle=none;html=1;exitX=0;exitY=1;exitDx=0;exitDy=0;entryX=0;entryY=0.5;entryDx=0;entryDy=0;" edge="1" parent="1" source="139" target="144">
                    <mxGeometry relative="1" as="geometry">
                        <Array as="points">
                            <mxPoint x="-760" y="3060"/>
                        </Array>
                    </mxGeometry>
                </mxCell>
                <mxCell id="163" style="edgeStyle=none;html=1;exitX=0;exitY=0.75;exitDx=0;exitDy=0;entryX=0;entryY=0.5;entryDx=0;entryDy=0;" edge="1" parent="1" source="139" target="148">
                    <mxGeometry relative="1" as="geometry">
                        <Array as="points">
                            <mxPoint x="-760" y="3110"/>
                        </Array>
                    </mxGeometry>
                </mxCell>
                <mxCell id="164" style="edgeStyle=none;html=1;exitX=0;exitY=0.25;exitDx=0;exitDy=0;entryX=0;entryY=0.5;entryDx=0;entryDy=0;" edge="1" parent="1" source="139" target="152">
                    <mxGeometry relative="1" as="geometry">
                        <Array as="points">
                            <mxPoint x="-760" y="3160"/>
                        </Array>
                    </mxGeometry>
                </mxCell>
                <mxCell id="165" style="edgeStyle=none;html=1;exitX=0;exitY=0;exitDx=0;exitDy=0;entryX=0;entryY=0.5;entryDx=0;entryDy=0;" edge="1" parent="1" source="139" target="156">
                    <mxGeometry relative="1" as="geometry">
                        <Array as="points">
                            <mxPoint x="-760" y="3210"/>
                        </Array>
                    </mxGeometry>
                </mxCell>
                <mxCell id="139" value="/links" style="rounded=0;whiteSpace=wrap;html=1;align=left;spacingBottom=5;spacingLeft=5;spacingRight=5;spacingTop=5;" vertex="1" parent="1">
                    <mxGeometry x="-760" y="2960" width="120" height="20" as="geometry"/>
                </mxCell>
                <mxCell id="140" value="GET" style="rounded=1;whiteSpace=wrap;html=1;align=left;spacingBottom=5;spacingLeft=5;spacingRight=5;spacingTop=5;" vertex="1" parent="1">
                    <mxGeometry x="-720" y="2990" width="560" height="40" as="geometry"/>
                </mxCell>
                <mxCell id="141" value="Input : None" style="rounded=0;whiteSpace=wrap;html=1;fontStyle=2;align=left;spacingLeft=5;spacingRight=5;" vertex="1" parent="1">
                    <mxGeometry x="-640" y="2990" width="160" height="40" as="geometry"/>
                </mxCell>
                <mxCell id="142" value="Paramaters: Path Para min_id and max_id" style="rounded=0;whiteSpace=wrap;html=1;fontStyle=2;align=left;spacingLeft=5;spacingRight=5;" vertex="1" parent="1">
                    <mxGeometry x="-480" y="2990" width="160" height="40" as="geometry"/>
                </mxCell>
                <mxCell id="143" value="Output: List of JSON of link objects" style="rounded=0;whiteSpace=wrap;html=1;fontStyle=2;align=left;spacingLeft=5;spacingRight=5;" vertex="1" parent="1">
                    <mxGeometry x="-320" y="2990" width="160" height="40" as="geometry"/>
                </mxCell>
                <mxCell id="144" value="GET" style="rounded=1;whiteSpace=wrap;html=1;align=left;spacingBottom=5;spacingLeft=5;spacingRight=5;spacingTop=5;" vertex="1" parent="1">
                    <mxGeometry x="-720" y="3040" width="560" height="40" as="geometry"/>
                </mxCell>
                <mxCell id="145" value="Input : None&amp;nbsp;" style="rounded=0;whiteSpace=wrap;html=1;fontStyle=2;align=left;spacingLeft=5;spacingRight=5;" vertex="1" parent="1">
                    <mxGeometry x="-640" y="3040" width="160" height="40" as="geometry"/>
                </mxCell>
                <mxCell id="146" value="Paramaters: Path Para id" style="rounded=0;whiteSpace=wrap;html=1;fontStyle=2;align=left;spacingLeft=5;spacingRight=5;" vertex="1" parent="1">
                    <mxGeometry x="-480" y="3040" width="160" height="40" as="geometry"/>
                </mxCell>
                <mxCell id="147" value="Output: JSON of&amp;nbsp;&lt;span style=&quot;color: rgb(0, 0, 0);&quot;&gt;link&lt;/span&gt;&amp;nbsp;object" style="rounded=0;whiteSpace=wrap;html=1;fontStyle=2;align=left;spacingLeft=5;spacingRight=5;" vertex="1" parent="1">
                    <mxGeometry x="-320" y="3040" width="160" height="40" as="geometry"/>
                </mxCell>
                <mxCell id="148" value="POST" style="rounded=1;whiteSpace=wrap;html=1;align=left;spacingBottom=5;spacingLeft=5;spacingRight=5;spacingTop=5;" vertex="1" parent="1">
                    <mxGeometry x="-720" y="3090" width="560" height="40" as="geometry"/>
                </mxCell>
                <mxCell id="149" value="Input : JSON of&amp;nbsp;&lt;span style=&quot;color: rgb(0, 0, 0);&quot;&gt;link&lt;/span&gt;&amp;nbsp;object" style="rounded=0;whiteSpace=wrap;html=1;fontStyle=2;align=left;spacingLeft=5;spacingRight=5;" vertex="1" parent="1">
                    <mxGeometry x="-640" y="3090" width="160" height="40" as="geometry"/>
                </mxCell>
                <mxCell id="150" value="Paramaters: None" style="rounded=0;whiteSpace=wrap;html=1;fontStyle=2;align=left;spacingLeft=5;spacingRight=5;" vertex="1" parent="1">
                    <mxGeometry x="-480" y="3090" width="160" height="40" as="geometry"/>
                </mxCell>
                <mxCell id="151" value="Output: JSON of posted&amp;nbsp;&lt;span style=&quot;color: rgb(0, 0, 0);&quot;&gt;link&lt;/span&gt;&amp;nbsp;object" style="rounded=0;whiteSpace=wrap;html=1;fontStyle=2;align=left;spacingLeft=5;spacingRight=5;" vertex="1" parent="1">
                    <mxGeometry x="-320" y="3090" width="160" height="40" as="geometry"/>
                </mxCell>
                <mxCell id="152" value="PUT" style="rounded=1;whiteSpace=wrap;html=1;align=left;spacingBottom=5;spacingLeft=5;spacingRight=5;spacingTop=5;" vertex="1" parent="1">
                    <mxGeometry x="-720" y="3140" width="560" height="40" as="geometry"/>
                </mxCell>
                <mxCell id="153" value="Input : JSON of&amp;nbsp;&lt;span style=&quot;color: rgb(0, 0, 0);&quot;&gt;link&lt;/span&gt;&amp;nbsp;object" style="rounded=0;whiteSpace=wrap;html=1;fontStyle=2;align=left;spacingLeft=5;spacingRight=5;" vertex="1" parent="1">
                    <mxGeometry x="-640" y="3140" width="160" height="40" as="geometry"/>
                </mxCell>
                <mxCell id="154" value="Paramaters: None" style="rounded=0;whiteSpace=wrap;html=1;fontStyle=2;align=left;spacingLeft=5;spacingRight=5;" vertex="1" parent="1">
                    <mxGeometry x="-480" y="3140" width="160" height="40" as="geometry"/>
                </mxCell>
                <mxCell id="155" value="Output: JSON of updated&amp;nbsp;&lt;span style=&quot;color: rgb(0, 0, 0);&quot;&gt;link&lt;/span&gt;&amp;nbsp;object" style="rounded=0;whiteSpace=wrap;html=1;fontStyle=2;align=left;spacingLeft=5;spacingRight=5;" vertex="1" parent="1">
                    <mxGeometry x="-320" y="3140" width="160" height="40" as="geometry"/>
                </mxCell>
                <mxCell id="156" value="DELETE" style="rounded=1;whiteSpace=wrap;html=1;align=left;spacingBottom=5;spacingLeft=5;spacingRight=5;spacingTop=5;" vertex="1" parent="1">
                    <mxGeometry x="-720" y="3190" width="560" height="40" as="geometry"/>
                </mxCell>
                <mxCell id="157" value="Input : JSON of&amp;nbsp;&lt;span style=&quot;color: rgb(0, 0, 0);&quot;&gt;link&lt;/span&gt;&amp;nbsp;object" style="rounded=0;whiteSpace=wrap;html=1;fontStyle=2;align=left;spacingLeft=5;spacingRight=5;" vertex="1" parent="1">
                    <mxGeometry x="-640" y="3190" width="160" height="40" as="geometry"/>
                </mxCell>
                <mxCell id="158" value="Paramaters: None" style="rounded=0;whiteSpace=wrap;html=1;fontStyle=2;align=left;spacingLeft=5;spacingRight=5;" vertex="1" parent="1">
                    <mxGeometry x="-480" y="3190" width="160" height="40" as="geometry"/>
                </mxCell>
                <mxCell id="159" value="Output: JSON of deleted&amp;nbsp;&lt;span style=&quot;color: rgb(0, 0, 0);&quot;&gt;link&lt;/span&gt;&amp;nbsp;object" style="rounded=0;whiteSpace=wrap;html=1;fontStyle=2;align=left;spacingLeft=5;spacingRight=5;" vertex="1" parent="1">
                    <mxGeometry x="-320" y="3190" width="160" height="40" as="geometry"/>
                </mxCell>
            </root>
        </mxGraphModel>
    </diagram>
</mxfile>